<?xml version="1.0" encoding="UTF-8" standalone="no"?>
<svg
   xmlns:osb="http://www.openswatchbook.org/uri/2009/osb"
   xmlns:dc="http://purl.org/dc/elements/1.1/"
   xmlns:cc="http://creativecommons.org/ns#"
   xmlns:rdf="http://www.w3.org/1999/02/22-rdf-syntax-ns#"
   xmlns:svg="http://www.w3.org/2000/svg"
   xmlns="http://www.w3.org/2000/svg"
   xmlns:xlink="http://www.w3.org/1999/xlink"
   xmlns:sodipodi="http://sodipodi.sourceforge.net/DTD/sodipodi-0.dtd"
   xmlns:inkscape="http://www.inkscape.org/namespaces/inkscape"
   width="512"
   height="512"
   viewBox="0 0 512 512"
   version="1.1"
   id="svg50"
   sodipodi:docname="youjian.svg"
   inkscape:version="1.0.1 (3bc2e813f5, 2020-09-07)">
  <metadata
     id="metadata54">
    <rdf:RDF>
      <cc:Work
         rdf:about="">
        <dc:format>image/svg+xml</dc:format>
        <dc:type
           rdf:resource="http://purl.org/dc/dcmitype/StillImage" />
        <dc:title></dc:title>
      </cc:Work>
    </rdf:RDF>
  </metadata>
  <sodipodi:namedview
     pagecolor="#ffffff"
     bordercolor="#666666"
     borderopacity="1"
     objecttolerance="10"
     gridtolerance="10"
     guidetolerance="10"
     inkscape:pageopacity="0"
     inkscape:pageshadow="2"
     inkscape:window-width="1920"
     inkscape:window-height="976"
     id="namedview52"
     showgrid="false"
     inkscape:zoom="1.5625"
     inkscape:cx="257.92"
     inkscape:cy="247.51157"
     inkscape:window-x="0"
     inkscape:window-y="0"
     inkscape:window-maximized="1"
     inkscape:current-layer="svg50"
     inkscape:document-rotation="0" />
  <defs
     id="defs38">
    <radialGradient
       id="radialGradient890"
       cx="222"
       cy="0"
       r="499.16257"
       fx="222"
       fy="0"
       gradientUnits="userSpaceOnUse"
       gradientTransform="translate(90.541994,-12.498006)">
      <stop
         offset="0"
         stop-color="#FF7440"
         id="stop886"
         style="stop-color:#abffc1;stop-opacity:0.56470591" />
      <stop
         offset="100%"
         stop-color="#DD001B"
         id="stop888"
         style="stop-color:#ffffff;stop-opacity:1" />
    </radialGradient>
    <radialGradient
       id="radialGradient921"
       cx="222"
       cy="0"
       r="499.16257"
       fx="222"
       fy="0"
       gradientUnits="userSpaceOnUse"
       gradientTransform="translate(90.541994,-12.498006)">
      <stop
         offset="0"
         stop-color="#FF7440"
         id="stop917"
         style="stop-color:#fff8dc;stop-opacity:0.0273555" />
      <stop
         offset="100%"
         stop-color="#DD001B"
         id="stop919"
         style="stop-color:#ffffff;stop-opacity:1" />
    </radialGradient>
    <radialGradient
       id="a-3"
       cx="222"
       cy="0"
       r="499.16257"
       fx="222"
       fy="0"
       gradientUnits="userSpaceOnUse"
       gradientTransform="translate(90.541994,-12.498006)">
      <stop
         offset="0"
         stop-color="#FF7440"
         id="stop1460"
         style="stop-color:#fff2e1;stop-opacity:1" />
      <stop
         offset="100%"
         stop-color="#DD001B"
         id="stop1462"
         style="stop-color:#ff9fa7;stop-opacity:1" />
    </radialGradient>
    <linearGradient
       id="linearGradient923"
       osb:paint="solid">
      <stop
         style="stop-color:#fff2e1;stop-opacity:1;"
         offset="0"
         id="stop921" />
    </linearGradient>
    <filter
       id="netease-cloud-music-a"
       width="124.3%"
       height="124.3%"
       x="-12.2%"
       y="-12.2%"
       filterUnits="objectBoundingBox">
      <feOffset
         dy="8"
         in="SourceAlpha"
         result="shadowOffsetOuter1"
         id="feOffset2" />
      <feGaussianBlur
         in="shadowOffsetOuter1"
         result="shadowBlurOuter1"
         stdDeviation="10"
         id="feGaussianBlur4" />
      <feComposite
         in="shadowBlurOuter1"
         in2="SourceAlpha"
         operator="out"
         result="shadowBlurOuter1"
         id="feComposite6" />
      <feColorMatrix
         in="shadowBlurOuter1"
         result="shadowMatrixOuter1"
         values="0 0 0 0 0   0 0 0 0 0   0 0 0 0 0  0 0 0 0.2 0"
         id="feColorMatrix8" />
      <feMerge
         id="feMerge14">
        <feMergeNode
           in="shadowMatrixOuter1"
           id="feMergeNode10" />
        <feMergeNode
           in="SourceGraphic"
           id="feMergeNode12" />
      </feMerge>
    </filter>
    <radialGradient
       id="a"
       cx="222"
       cy="0"
       r="499.16258"
       fx="222"
       fy="0"
       gradientUnits="userSpaceOnUse"
       gradientTransform="translate(34,34)">
      <stop
         offset="0"
         stop-color="#FF7440"
         id="stop17"
         style="stop-color:#86f2b1;stop-opacity:1" />
      <stop
         offset="100%"
         stop-color="#DD001B"
         id="stop19"
         style="stop-color:#4cc5f7;stop-opacity:1" />
    </radialGradient>
    <path
       id="netease-cloud-music-d"
       d="M175.190087,111.043105 C131.324202,130.144668 104.746696,169.514987 96.968972,202.50083 C89.1912479,235.486673 94.1999801,259.98517 100.421947,278.54134 C105.081318,292.437281 112.060653,305.445146 120.922108,316.406104 C132.337197,330.525716 144.709261,340.460455 152.373132,345.879043 C165.225874,354.966319 189.177697,366.230778 218.046138,368.013064 C243.400483,369.578395 271.037107,364.537168 298.90167,346.844638 C333.140239,325.104949 347.802954,292.445254 350.77909,264.591715 C351.806233,254.978727 350.946793,236.885194 346.294822,221.6479 C346.294822,221.6479 346.294822,221.6479 346.294822,221.6479 C335.89666,187.589256 306.498832,162.78917 271.175295,158.276886 L265.349851,157.532731 L265.349851,157.532731 L257.044631,157.532731 C246.989018,157.532731 237.009524,159.276002 227.549432,162.685109 C222.21861,164.606162 217.410744,166.860557 213.125832,169.448293 C199.586921,177.624687 191.698763,188.259164 188.860159,192.205116 C174.423555,212.273485 174.083782,238.38553 184.848656,257.118425 C195.355046,275.401509 216.003731,287.469442 240.748624,280.814036 C272.310429,272.325147 280.005679,242.149326 270.411783,208.038087 C260.817888,173.926849 250.175687,134.583987 248.560484,127.672767 C248.370703,126.860723 248.077441,125.693963 247.680699,124.172487 C243.830341,109.406676 251.012476,93.9875936 264.793194,87.434254 C279.0485,80.6552265 296.065971,84.0779826 306.591823,95.8412911 L307.265276,96.5939182 L307.265276,96.5939182" />
    <filter
       id="netease-cloud-music-c"
       width="140.3%"
       height="132.9%"
       x="-20.2%"
       y="-12.3%"
       filterUnits="objectBoundingBox">
      <feMorphology
         in="SourceAlpha"
         operator="dilate"
         radius="16.5"
         result="shadowSpreadOuter1"
         id="feMorphology23" />
      <feOffset
         dy="8"
         in="shadowSpreadOuter1"
         result="shadowOffsetOuter1"
         id="feOffset25" />
      <feMorphology
         in="SourceAlpha"
         radius="16.5"
         result="shadowInner"
         id="feMorphology27" />
      <feOffset
         dy="8"
         in="shadowInner"
         result="shadowInner"
         id="feOffset29" />
      <feComposite
         in="shadowOffsetOuter1"
         in2="shadowInner"
         operator="out"
         result="shadowOffsetOuter1"
         id="feComposite31" />
      <feGaussianBlur
         in="shadowOffsetOuter1"
         result="shadowBlurOuter1"
         stdDeviation="10.5"
         id="feGaussianBlur33" />
      <feColorMatrix
         in="shadowBlurOuter1"
         values="0 0 0 0 0   0 0 0 0 0   0 0 0 0 0  0 0 0 0.1 0"
         id="feColorMatrix35" />
    </filter>
    <radialGradient
       id="a-3-0"
       cx="222"
       cy="0"
       r="499.16257"
       fx="222"
       fy="0"
       gradientUnits="userSpaceOnUse"
       gradientTransform="translate(90.541994,-12.498006)">
      <stop
         offset="0"
         stop-color="#FF7440"
         id="stop17-6"
         style="stop-color:#fff8dc;stop-opacity:0.0273555" />
      <stop
         offset="100%"
         stop-color="#DD001B"
         id="stop19-7"
         style="stop-color:#ffedf2;stop-opacity:1" />
    </radialGradient>
    <filter
       id="netease-cloud-music-a-5"
       width="1.249153"
       height="1.2126827"
       x="-0.122"
       y="-0.122"
       filterUnits="objectBoundingBox">
      <feOffset
         dy="8"
         in="SourceAlpha"
         result="shadowOffsetOuter1"
         id="feOffset2-3" />
      <feGaussianBlur
         in="shadowOffsetOuter1"
         result="shadowBlurOuter1"
         stdDeviation="10"
         id="feGaussianBlur4-5" />
      <feComposite
         in="shadowBlurOuter1"
         in2="SourceAlpha"
         operator="out"
         result="shadowBlurOuter1"
         id="feComposite6-6" />
      <feColorMatrix
         in="shadowBlurOuter1"
         result="shadowMatrixOuter1"
         values="0 0 0 0 0   0 0 0 0 0   0 0 0 0 0  0 0 0 0.2 0"
         id="feColorMatrix8-2" />
      <feMerge
         id="feMerge14-9">
        <feMergeNode
           in="shadowMatrixOuter1"
           id="feMergeNode10-1" />
        <feMergeNode
           in="SourceGraphic"
           id="feMergeNode12-2" />
      </feMerge>
    </filter>
    <filter
       height="1"
       width="1"
       y="0"
       x="0"
       style="color-interpolation-filters:sRGB;"
       inkscape:label="Blur"
       id="filter1077">
      <feGaussianBlur
         stdDeviation="100 100"
         result="blur"
         id="feGaussianBlur1071" />
      <feColorMatrix
         values="1 0 0 0 0 0 1 0 0 0 0 0 1 0 0 0 0 0 50 0 "
         result="colormatrix"
         id="feColorMatrix1073" />
      <feComposite
         in="colormatrix"
         in2="SourceGraphic"
         operator="in"
         id="feComposite1075"
         result="fbSourceGraphic" />
      <feColorMatrix
         result="fbSourceGraphicAlpha"
         in="fbSourceGraphic"
         values="0 0 0 -1 0 0 0 0 -1 0 0 0 0 -1 0 0 0 0 1 0"
         id="feColorMatrix1079" />
      <feGaussianBlur
         id="feGaussianBlur1081"
         stdDeviation="100 100"
         result="blur"
         in="fbSourceGraphic" />
      <feColorMatrix
         id="feColorMatrix1083"
         values="1 0 0 0 0 0 1 0 0 0 0 0 1 0 0 0 0 0 50 0 "
         result="colormatrix" />
      <feComposite
         in2="fbSourceGraphic"
         id="feComposite1085"
         in="colormatrix"
         operator="in" />
    </filter>
    <style
       type="text/css"
       id="style887" />
    <linearGradient
       inkscape:collect="always"
       xlink:href="#a"
       id="linearGradient896"
       x1="524.93634"
       y1="12.237527"
       x2="28.282438"
       y2="474.27316"
       gradientUnits="userSpaceOnUse" />
  </defs>
  <rect
     width="444"
     height="444"
     fill="url(#netease-cloud-music-b)"
     rx="64"
     id="rect40"
     style="fill:url(#linearGradient896);fill-rule:evenodd;filter:url(#netease-cloud-music-a);fill-opacity:1"
     x="34"
     y="34" />
  <g
     id="g907"
     transform="matrix(0.26311645,0,0,0.25985313,121.06239,122.72022)"
     style="fill:#ffffff;fill-opacity:0.790116">
    <path
       d="M 661.3,250.7 H 138.7 C 97.5,250.7 64,284.1 64,325.4 v 560 c 0,41.2 33.4,74.7 74.7,74.7 h 522.7 c 41.2,0 74.7,-33.4 74.7,-74.7 v -560 C 736,284.1 702.6,250.7 661.3,250.7 Z m 18.7,616 c 0,20.6 -16.7,37.3 -37.3,37.3 H 157.3 C 136.7,904 120,887.3 120,866.7 V 344 c 0,-20.6 16.7,-37.3 37.3,-37.3 h 485.3 c 20.6,0 37.3,16.7 37.3,37.3 v 522.7 z"
       fill="#000000"
       p-id="2200"
       id="path891"
       style="fill:#ffffff;fill-opacity:0.790116" />
    <path
       d="m 596,624 h -37.3 c -15.4,0 -28,12.6 -28,28 0,15.4 12.6,28 28,28 H 596 c 15.4,0 28,-12.6 28,-28 0,-15.4 -12.6,-28 -28,-28 z m 0,-93.3 h -93.3 c -15.4,0 -28,12.6 -28,28 0,15.4 12.6,28 28,28 H 596 c 15.4,0 28,-12.6 28,-28 0,-15.4 -12.6,-28 -28,-28 z m 0,-93.4 H 465.3 c -15.4,0 -28,12.6 -28,28 0,15.4 12.6,28 28,28 H 596 c 15.4,0 28,-12.6 28,-28 0,-15.4 -12.6,-28 -28,-28 z m -297,0 -123,336 h 77.7 l 24.7,-77 h 122.1 l 25.2,77 h 78.1 L 383.2,437.3 Z M 294,641 338.3,495.2 h 2 L 383.6,641 Z"
       fill="#000000"
       p-id="2201"
       id="path893"
       style="fill:#ffffff;fill-opacity:0.790116" />
    <path
       d="M 885.3,64 H 418.7 C 377.6,64 344,97.6 344,138.7 v 46.7 c 0,15.5 12.5,28 28,28 15.5,0 28,-12.5 28,-28 v -28 c 0,-20.5 16.8,-37.3 37.3,-37.3 h 429.3 c 20.5,0 37.3,16.8 37.3,37.3 V 680 c 0,20.5 -16.8,37.3 -37.3,37.3 h -65.3 c -15.5,0 -28,12.5 -28,28 0,15.5 12.5,28 28,28 h 84 c 41.1,0 74.7,-33.6 74.7,-74.7 v -560 C 960,97.6 926.4,64 885.3,64 Z"
       fill="#000000"
       p-id="2202"
       id="path895"
       style="fill:#ffffff;fill-opacity:0.790116" />
  </g>
</svg>
